/*
 * MIT License
 *
 * Copyright (c) 2021 P2O-Lab <p2o-lab@mailbox.tu-dresden.de>,
 * Chair for Process Control Systems, Technische Universität Dresden
 *
 * Permission is hereby granted, free of charge, to any person obtaining a copy
 * of this software and associated documentation files (the "Software"), to deal
 * in the Software without restriction, including without limitation the rights
 * to use, copy, modify, merge, publish, distribute, sublicense, and/or sell
 * copies of the Software, and to permit persons to whom the Software is
 * furnished to do so, subject to the following conditions:
 *
 * The above copyright notice and this permission notice shall be included in all
 * copies or substantial portions of the Software.
 *
 * THE SOFTWARE IS PROVIDED "AS IS", WITHOUT WARRANTY OF ANY KIND, EXPRESS OR
 * IMPLIED, INCLUDING BUT NOT LIMITED TO THE WARRANTIES OF MERCHANTABILITY,
 * FITNESS FOR A PARTICULAR PURPOSE AND NONINFRINGEMENT. IN NO EVENT SHALL THE
 * AUTHORS OR COPYRIGHT HOLDERS BE LIABLE FOR ANY CLAIM, DAMAGES OR OTHER
 * LIABILITY, WHETHER IN AN ACTION OF CONTRACT, TORT OR OTHERWISE, ARISING FROM,
 * OUT OF OR IN CONNECTION WITH THE SOFTWARE OR THE USE OR OTHER DEALINGS IN THE
 * SOFTWARE.
 */
 
@startuml
skinparam monochrome true

frame POL {
node Polaris-VirtualServices {
 card "CombinedDoseFill (AggregatedService)" as AggregatedService1
 card "SpecialRecipe (AggregatedService)" as AggregatedService2
 card Timer1
 }
}

AggregatedService2 ..> AggregatedService1
AggregatedService2 ..> Timer1

frame PEA-layer {

    node PEA2 {
      card "Service Fill" as PEA2S1
      card "Service 2" as PEA2S2
   entity V2.1
      entity "T2.1"
    }

    node PEA1 {
      card "Service Dose" as PEA1S1
      card "Service 2" as PEA1S2
      entity "P1.1"
      entity "V1.1"
    }

}

AggregatedService1 ..> PEA1S1
AggregatedService1 ..> PEA2S1

PEA1S1 ..> P1.1
PEA1S1 ..> V1.1

PEA2S1 ..> V2.1

P1.1 ->> V1.1
V1.1 ->> V2.1
V2.1 ->> T2.1

@enduml